{
  "accessors": [
    {
      "bufferView": 2,
      "componentType": 5126,
      "count": 3534,
      "max": [
        6.192317485809326,
        1.2196327447891235,
        7.52001428604126
      ],
      "min": [
        -7.736972332000732,
        -0.20642898976802826,
        -6.409275531768799
      ],
      "type": "VEC3"
    },
    {
      "bufferView": 2,
      "byteOffset": 42408,
      "componentType": 5126,
      "count": 3534,
      "max": [
        0.997694730758667,
        1.0,
        0.9999560713768005
      ],
      "min": [
        -0.9999560713768005,
        -1.0,
        -0.9976982474327087
      ],
      "type": "VEC3"
    },
    {
      "bufferView": 1,
      "componentType": 5126,
      "count": 3534,
      "max": [
        1.0000001192092896,
        1.0000001192092896
      ],
      "min": [
        0.0,
        0.01000000536441803
      ],
      "type": "VEC2"
    },
    {
      "bufferView": 1,
      "byteOffset": 28272,
      "componentType": 5126,
      "count": 3534,
      "max": [
        0.0,
        0.0
      ],
      "min": [
        0.0,
        0.0
      ],
      "type": "VEC2"
    },
    {
      "bufferView": 0,
      "componentType": 5125,
      "count": 16896,
      "type": "SCALAR"
    },
    {
      "bufferView": 2,
      "byteOffset": 84816,
      "componentType": 5126,
      "count": 2014,
      "max": [
        -4.65182638168335,
        1.2046961784362793,
        8.883238792419434
      ],
      "min": [
        -9.115767478942871,
        0.3217102289199829,
        4.419297695159912
      ],
      "type": "VEC3"
    },
    {
      "bufferView": 2,
      "byteOffset": 108984,
      "componentType": 5126,
      "count": 2014,
      "max": [
        0.9998754858970642,
        1.0,
        0.9998443126678467
      ],
      "min": [
        -0.9998442530632019,
        -1.0,
        -0.9998754262924194
      ],
      "type": "VEC3"
    },
    {
      "bufferView": 1,
      "byteOffset": 56544,
      "componentType": 5126,
      "count": 2014,
      "max": [
        1.0000001192092896,
        1.0000001192092896
      ],
      "min": [
        0.0,
        0.0
      ],
      "type": "VEC2"
    },
    {
      "bufferView": 1,
      "byteOffset": 72656,
      "componentType": 5126,
      "count": 2014,
      "max": [
        0.0,
        0.0
      ],
      "min": [
        0.0,
        0.0
      ],
      "type": "VEC2"
    },
    {
      "bufferView": 0,
      "byteOffset": 67584,
      "componentType": 5125,
      "count": 9504,
      "type": "SCALAR"
    },
    {
      "bufferView": 2,
      "byteOffset": 133152,
      "componentType": 5126,
      "count": 11446,
      "max": [
        6.868217945098877,
        14.404281616210938,
        4.549947738647461
      ],
      "min": [
        -6.095199108123779,
        -19.835813522338867,
        -7.076117992401123
      ],
      "type": "VEC3"
    },
    {
      "bufferView": 2,
      "byteOffset": 270504,
      "componentType": 5126,
      "count": 11446,
      "max": [
        0.9998922944068909,
        0.999842643737793,
        0.999950647354126
      ],
      "min": [
        -0.99965900182724,
        -0.9998427033424377,
        -0.9997103810310364
      ],
      "type": "VEC3"
    },
    {
      "bufferView": 1,
      "byteOffset": 88768,
      "componentType": 5126,
      "count": 11446,
      "max": [
        0.875,
        1.0000003576278687
      ],
      "min": [
        0.0,
        0.0
      ],
      "type": "VEC2"
    },
    {
      "bufferView": 1,
      "byteOffset": 180336,
      "componentType": 5126,
      "count": 11446,
      "max": [
        1.2006042003631592,
        0.9845886826515198
      ],
      "min": [
        0.0,
        0.0
      ],
      "type": "VEC2"
    },
    {
      "bufferView": 0,
      "byteOffset": 105600,
      "componentType": 5125,
      "count": 64500,
      "type": "SCALAR"
    }
  ],
  "asset": {
    "extras": {
      "author": "minimoku (https://sketchfab.com/minimoku)",
      "license": "SKETCHFAB Standard (https://sketchfab.com/licenses)",
      "source": "https://sketchfab.com/3d-models/heart-with-arrow-a1d3f567ce17484586f23b8927e8a4ef",
      "title": "Heart with Arrow"
    },
    "generator": "Sketchfab-16.16.0",
    "version": "2.0"
  },
  "bufferViews": [
    {
      "buffer": 0,
      "byteLength": 363600,
      "name": "floatBufferViews",
      "target": 34963
    },
    {
      "buffer": 0,
      "byteLength": 271904,
      "byteOffset": 363600,
      "byteStride": 8,
      "name": "floatBufferViews",
      "target": 34962
    },
    {
      "buffer": 0,
      "byteLength": 407856,
      "byteOffset": 635504,
      "byteStride": 12,
      "name": "floatBufferViews",
      "target": 34962
    }
  ],
  "buffers": [
    {
      "byteLength": 1043360,
      "uri": "heart.bin"
    }
  ],
  "materials": [
    {
      "doubleSided": true,
      "name": "material",
      "pbrMetallicRoughness": {
        "baseColorFactor": [
          0.8287883181224912,
          0.5615083508037436,
          0.34673835531041397,
          1.0
        ],
        "metallicFactor": 0.0,
        "roughnessFactor": 0.8686966380280643
      }
    },
    {
      "doubleSided": true,
      "name": "material_1",
      "pbrMetallicRoughness": {
        "baseColorFactor": [
          0.8108247682741136,
          0.34929266447822604,
          0.4872627962147616,
          1.0
        ],
        "metallicFactor": 0.0,
        "roughnessFactor": 0.9034323831904402
      }
    },
    {
      "doubleSided": true,
      "name": "material_2",
      "pbrMetallicRoughness": {
        "baseColorFactor": [
          0.840106,
          0.24526800000000015,
          0.36570099999999994,
          1.0
        ],
        "metallicFactor": 0.0,
        "roughnessFactor": 0.9341083148824076
      }
    }
  ],
  "meshes": [
    {
      "name": "0008_03_0",
      "primitives": [
        {
          "attributes": {
            "NORMAL": 1,
            "POSITION": 0,
            "TEXCOORD_0": 2,
            "TEXCOORD_1": 3
          },
          "indices": 4,
          "material": 0,
          "mode": 4
        }
      ]
    },
    {
      "name": "0008_02_0",
      "primitives": [
        {
          "attributes": {
            "NORMAL": 6,
            "POSITION": 5,
            "TEXCOORD_0": 7,
            "TEXCOORD_1": 8
          },
          "indices": 9,
          "material": 1,
          "mode": 4
        }
      ]
    },
    {
      "name": "0008_01_0",
      "primitives": [
        {
          "attributes": {
            "NORMAL": 11,
            "POSITION": 10,
            "TEXCOORD_0": 12,
            "TEXCOORD_1": 13
          },
          "indices": 14,
          "material": 2,
          "mode": 4
        }
      ]
    }
  ],
  "nodes": [
    {
      "children": [
        1
      ],
      "matrix": [
        1.0,
        0.0,
        0.0,
        0.0,
        0.0,
        2.220446049250313e-16,
        -1.0,
        0.0,
        0.0,
        1.0,
        2.220446049250313e-16,
        0.0,
        0.0,
        0.0,
        0.0,
        1.0
      ],
      "name": "Sketchfab_model"
    },
    {
      "children": [
        2
      ],
      "matrix": [
        0.009999999776482582,
        0.0,
        0.0,
        0.0,
        0.0,
        0.0,
        0.009999999776482582,
        0.0,
        0.0,
        -0.009999999776482582,
        0.0,
        0.0,
        0.0,
        0.0,
        0.0,
        1.0
      ],
      "name": "f06a04fc08fe41f8846c8ab6b0829594.fbx"
    },
    {
      "children": [
        3
      ],
      "name": "RootNode"
    },
    {
      "children": [
        4,
        5,
        6
      ],
      "matrix": [
        15.528650974655875,
        -4.473635975246436,
        -3.420234581396417,
        0.0,
        -1.454429016565609,
        -2.4525097469295245,
        -3.3955813426724752,
        0.0,
        1.5341616381867131,
        13.01389164735403,
        -10.056606473878503,
        0.0,
        -9.25472354888916,
        -9.792878150939941,
        -3.355055570602417,
        1.0
      ],
      "name": "0008"
    },
    {
      "mesh": 0,
      "name": "0008_03_0"
    },
    {
      "mesh": 1,
      "name": "0008_02_0"
    },
    {
      "mesh": 2,
      "name": "0008_01_0"
    }
  ],
  "scene": 0,
  "scenes": [
    {
      "name": "Sketchfab_Scene",
      "nodes": [
        0
      ]
    }
  ]
}
